<svg xmlns="http://www.w3.org/2000/svg" xmlns:xlink="http://www.w3.org/1999/xlink" width="19" height="16" viewBox="0 0 19 16"><defs><path id="gmaza" d="M1109.5 80.18c.77 0 1.4.63 1.4 1.4a1.4 1.4 0 0 1-2.78 0c-.01-.77.61-1.4 1.38-1.4zm5-.03c.79 0 1.42.64 1.42 1.43 0 .8-.63 1.44-1.42 1.44-.79 0-1.42-.65-1.42-1.44 0-.79.63-1.43 1.42-1.43zm2.8-9.1c.52.17-.53-.16 0 0 .52.17-.53-.16 0 0a1 1 0 0 1 .65 1.27l-1.8 5.26c-.35 1.05-.96 1.49-2.18 1.49h-3.84c-.94 0-1.5-.5-2.08-1.5l-2.8-5.55H1103a1 1 0 0 1-1-1.01 1 1 0 0 1 1-1h2.66c.41 0 1.17.36 1.36.95 0 0 1.53 3.25 2.44 5.05.33.76.79 1.04 1.48 1.04h2.12c.8 0 1.19-.22 1.48-1.03.5-1.8 1.5-4.3 1.5-4.3a1 1 0 0 1 1.26-.67c.52.17-.53-.16 0 0z"/></defs><g><g transform="translate(-1101 -69)"><use fill="#6e6e6e" xlink:href="#gmaza"/></g></g></svg>