<svg xmlns="http://www.w3.org/2000/svg" xmlns:xlink="http://www.w3.org/1999/xlink" width="19" height="18" viewBox="0 0 19 18"><defs><path id="5wlta" d="M885.5 456.2a1.4 1.4 0 1 1 0 2.78 1.4 1.4 0 0 1 0-2.79zm5-.04a1.42 1.42 0 1 1 0 2.85 1.42 1.42 0 0 1 0-2.85zm2.8-9.07a1 1 0 0 1 .65 1.26l-1.8 5.24c-.35 1.05-.96 1.49-2.18 1.49h-3.84c-.94 0-1.5-.5-2.08-1.49l-2.8-5.54H879a1 1 0 0 1 0-2h2.66c.41 0 1.17.36 1.36.95 0 0 1.53 3.24 2.44 5.04.33.75.79 1.03 1.48 1.03h2.12c.8 0 1.19-.22 1.48-1.03.5-1.79 1.5-4.3 1.5-4.3a1 1 0 0 1 1.26-.65zm0 0c-.53-.17.52.17 0 0-.53-.17.52.17 0 0-.53-.17.52.17 0 0zm-6.3-.04v-2.03a1 1 0 0 1 1-1 1 1 0 0 1 1 1v2.03h2.54L888 450.6l-3.54-3.55z"/></defs><g><g transform="translate(-877 -443)"><use fill="#57c5a0" xlink:href="#5wlta"/></g></g></svg>