<svg xmlns="http://www.w3.org/2000/svg" xmlns:xlink="http://www.w3.org/1999/xlink" width="18" height="14" viewBox="0 0 18 14"><defs><path id="2b1ma" d="M769 452c0 .04 0 .08-.02.11v.07l-.02.02-.01.04A9.17 9.17 0 0 1 761 457c-3.33 0-6.5-1.99-7.95-4.77v-.03l-.02-.03-.01-.06-.02-.11c0-.04 0-.08.02-.11v-.07l.02-.02.01-.04A9.17 9.17 0 0 1 761 447c3.33 0 6.5 1.99 7.95 4.77v.03l.02.03.01.06.02.11zm-1 0a8.26 8.26 0 0 0-7-4c-2.8 0-5.62 1.6-7 4 1.37 2.4 4.19 4 7 4 2.8 0 5.62-1.6 7-4zm-6.75-1.75c0 .14-.11.25-.25.25-.83 0-1.5.67-1.5 1.5a.25.25 0 1 1-.5 0c0-1.1.9-2 2-2 .14 0 .25.11.25.25zm3.24 1.75a3.5 3.5 0 1 1-7 0 3.5 3.5 0 0 1 7 0zm-.5 0a3 3 0 1 0-6.01 0 3 3 0 0 0 6.01 0z"/></defs><g><g transform="translate(-752 -445)"><use fill="#6e6e6e" xlink:href="#2b1ma"/></g></g></svg>