<svg xmlns="http://www.w3.org/2000/svg" xmlns:xlink="http://www.w3.org/1999/xlink" width="22" height="19" viewBox="0 0 22 19"><defs><path id="fe7ra" d="M1024.94 2182.24h-1.35c.86.71 1.62 1.62 1.56 3.1-.07 1.49-1.01 2.1-1.88 2.8-.2.15-.5.49-.58.69-.31.82.53 1.29.96 1.6.4.3.73.56 1.03.82.64.54 1.24 1.24 1.24 2.45 0 1.32-.77 2.24-1.62 2.85a7 7 0 0 1-3.32 1.15 7.97 7.97 0 0 1-3.88-.51c-.95-.42-1.93-1.2-1.93-2.51 0-.67.3-1.34.66-1.75 1.77-1.97 3.03-1.66 5.34-1.83-.12-.25-.46-.54-.58-.9-.15-.47-.06-1 .15-1.37a4.08 4.08 0 0 1-3.45-1 3.23 3.23 0 0 1-.92-3 3.8 3.8 0 0 1 1.67-2.4 5.5 5.5 0 0 1 3.19-.96h5.14c1.74 0-1.43.77-1.43.77zm-6.53 1.24c-.3.87-.06 2.04.25 2.8.34.82.86 1.5 1.5 1.8 1.03.49 2.39 0 2.81-.89.12-.24.17-.6.19-.86.11-1.69-.79-3.32-1.8-3.9-.31-.18-.8-.27-1.26-.22-.9.1-1.48.66-1.69 1.27zm-.16 8.93a2.2 2.2 0 0 0-.98 1.12c-.15.4-.15.93-.04 1.33.33 1.15 1.69 1.81 3.12 1.94 1.54.13 3.1-.1 3.77-1.2.36-.6.37-1.46.01-2.05-.42-.69-1-1-1.6-1.42-.2-.13-.38-.35-.63-.42-.17-.04-.52 0-.71 0-1.22.06-2.2.24-2.94.7zm11.93-10.92h1.16l-.02 2.98c.98.04 2-.01 3.02 0v1.2h-2.98l-.02 2.99h-1.14l-.02-3c-.99-.04-1.99.01-3 0v-1.19h2.98l.02-2.92c0-.03-.02-.05 0-.06z"/></defs><g><g transform="translate(-1014 -2180)"><use fill="#7d7d7d" xlink:href="#fe7ra"/></g></g></svg>