<svg xmlns="http://www.w3.org/2000/svg" xmlns:xlink="http://www.w3.org/1999/xlink" width="21" height="22" viewBox="0 0 21 22"><defs><path id="4wnna" d="M1059.3 2185.43h3.46v13.04h-3.46zm16.38.75c.85.7 1.28 1.88 1.28 3.51v8.78h-3.5v-7.93c0-.68-.08-1.21-.27-1.58-.33-.67-.96-1-1.9-1-1.14 0-1.93.49-2.36 1.47a5.1 5.1 0 0 0-.33 1.98v7.06h-3.07v-13.2h2.96v2.09c.44-.67.85-1.15 1.24-1.45a4.3 4.3 0 0 1 2.66-.79 5 5 0 0 1 3.29 1.06zm-12.47-4.2a2.11 2.11 0 1 1-4.22 0 2.11 2.11 0 0 1 4.22 0z"/></defs><g><g transform="translate(-1057 -2178)"><use fill="#7d7d7d" xlink:href="#4wnna"/></g></g></svg>