<svg xmlns="http://www.w3.org/2000/svg" xmlns:xlink="http://www.w3.org/1999/xlink" width="20" height="17" viewBox="0 0 20 17"><defs><path id="rdtqa" d="M846.96 447.34V445l5.04 4.02-5.04 3.98v-2.44c-5.45 0-6.99 2.44-6.99 2.44 0-5.37 6.86-5.66 6.99-5.66zM850 455v1l-.02.1A2 2 0 0 1 848 458h-10a2 2 0 0 1-2-2v-8c0-1.1.9-2 2-2H841a1 1 0 0 1 1 1c0 .02-.45 0-1 0h-4.01v10h12v-2h.01c0-.55-.02-1 0-1a1 1 0 0 1 1 1z"/></defs><g><g transform="translate(-834 -443)"><use fill="#6e6e6e" xlink:href="#rdtqa"/></g></g></svg>