<svg xmlns="http://www.w3.org/2000/svg" xmlns:xlink="http://www.w3.org/1999/xlink" width="20" height="18" viewBox="0 0 20 18"><defs><path id="1ggfa" d="M1027.66 75.15l-3.05 3.14.71 4.35a1.16 1.16 0 0 1-1.14 1.35c-.19 0-.38-.05-.56-.15l-3.62-2.01-3.62 2.01a1.15 1.15 0 0 1-1.7-1.2l.7-4.35-3.04-3.14a1.16 1.16 0 0 1 .65-1.96l4.16-.64 1.8-3.87a1.15 1.15 0 0 1 2.1 0l1.8 3.87 4.16.64a1.16 1.16 0 0 1 .65 1.96zm-.83-.81l-4.15-.64c-.38-.06-.71-.3-.87-.65l-1.81-3.88-1.8 3.88c-.17.34-.5.59-.88.65l-4.15.64 3.04 3.14c.26.26.37.63.32 1l-.71 4.35 3.62-2.02a1.15 1.15 0 0 1 1.12 0l3.62 2.02-.7-4.36c-.06-.36.05-.73.3-1z"/></defs><g><g transform="translate(-1010 -67)"><use fill="#6e6e6e" xlink:href="#1ggfa"/></g></g></svg>