<svg xmlns="http://www.w3.org/2000/svg" xmlns:xlink="http://www.w3.org/1999/xlink" width="22" height="24" viewBox="0 0 22 24"><defs><path id="eg91a" d="M989.95 2183.12c-.09.72-1.14 1.45-1.77 2 .63 9.21-9.82 14.96-17.42 10.3 2.13 0 4.53-.58 5.8-1.78-1.84-.3-3.15-1.13-3.66-2.77.54-.05 1.3.12 1.66-.1-1.68-.65-3.01-1.64-3.1-3.88.6.06.92.41 1.67.33-1.1-.7-2.34-3.35-1.22-5.31 1.97 2.19 4.44 3.89 8.3 4.2-.96-4.07 4.44-6.59 6.86-3.65.95-.2 1.74-.55 2.55-.89-.33.93-1 1.51-1.66 2.1.71-.13 1.47-.22 2-.55z"/></defs><g><g transform="translate(-969 -2178)"><use fill="#7d7d7d" xlink:href="#eg91a"/></g></g></svg>