<svg xmlns="http://www.w3.org/2000/svg" xmlns:xlink="http://www.w3.org/1999/xlink" width="188" height="65" viewBox="0 0 188 65"><defs><path id="qdn6a" d="M760.5 11314a21.5 21.5 0 1 1 0 43 21.5 21.5 0 0 1 0-43z"/><path id="qdn6b" d="M780.5 11314a21.5 21.5 0 1 1 0 43 21.5 21.5 0 0 1 0-43z"/><path id="qdn6c" d="M766.5 11336a21.5 21.5 0 1 1 0 43 21.5 21.5 0 0 1 0-43z"/></defs><g><g transform="translate(-739 -11314)"><use fill="#00ce9b" xlink:href="#qdn6a"/></g><g transform="translate(-739 -11314)"><use fill="#e74c3c" xlink:href="#qdn6b"/></g><g transform="translate(-739 -11314)"><use fill="#3c44e7" xlink:href="#qdn6c"/></g><g transform="translate(-739 -11314)"><g fill="#fff" font-family="'Pacifico','Pacifico-Regular'" font-size="30" font-style="none" font-weight="400" style="text-transform:uppercase;line-height:25px"><text dominant-baseline="text-before-edge" font-family="Helvetica, Arial, sans-serif" transform="translate(814 11330)"><tspan fill="#00ce9b" style="font-kerning:normal">C</tspan><tspan fill="#00ce9b" style="font-kerning:normal">o</tspan><tspan style="font-kerning:normal">lor</tspan></text></g></g></g></svg>